<?xml version="1.0" encoding="UTF-8"?>
<svg id="_圖層_1" data-name="圖層_1" xmlns="http://www.w3.org/2000/svg" version="1.1" viewBox="0 0 64 64">
  <!-- Generator: Adobe Illustrator 30.3.0, SVG Export Plug-In . SVG Version: 2.1.3 Build 182)  -->
  <defs>
    <style>
      .st0 {
        stroke-width: 1.43px;
      }

      .st0, .st1 {
        fill: none;
        stroke: #ffe8a3;
        stroke-linecap: round;
        stroke-linejoin: round;
      }

      .st1 {
        stroke-width: 1.6px;
      }
    </style>
  </defs>
  <path class="st1" d="M44.42,22.6c-1.9-1.2-3-3.2-3-5.4v-5c0-1.1-.9-2-2-2h-12c-1.1,0-2,.9-2,2v4.94c0,.56-.07,1.11-.2,1.63-.4,1.57-1.38,2.92-2.8,3.83-3.63,2.32-6,6.41-6,11.06v10.54c0,6.08,4.92,11,11,11h12c6.08,0,11-4.92,11-11v-10.54c0-4.65-2.37-8.74-6-11.06ZM36.92,33.64l1.16,5.18-4.66-2.63-4.66,2.63,1.16-5.18-4.04-3.53,5.36-.49,2.18-4.92,2.18,4.92,5.36.49-4.04,3.53Z"/>
  <line class="st0" x1="28.38" y1="18.02" x2="38.46" y2="18.02"/>
</svg>